<svg xmlns="http://www.w3.org/2000/svg" xmlns:xlink="http://www.w3.org/1999/xlink" width="400" height="400" viewBox="0 0 400 400"><defs><linearGradient id="gradient-21"><stop stop-color="#834f3a" offset="0"/><stop stop-color="#dba174" offset="0.5"/><stop stop-color="#834F3A" offset="1"/></linearGradient></defs>
<rect data-name="background" width="100%" height="100%" fill="#2c2e30"/><g data-name="icon" fill="url(#gradient-21)" data="id:7353285" transform="translate(5.727822522911176,137.32252560269447) scale(1.253350651733079)">
  
 <path d="m90.891 31.215c-4.5547-9.9297-12.57-17.859-22.551-22.309-9.9805-4.4492-21.238-5.1094-31.668-1.8555-0.11328 0.015625-0.21875 0.050781-0.32031 0.10156-13.199 4.1875-23.734 14.227-28.551 27.215-4.5156 12.188-3.5273 25.738 2.7109 37.145 0.039062 0.14844 0.11328 0.28516 0.21875 0.39844 5.875 10.574 15.77 18.332 27.445 21.512 11.672 3.1836 24.133 1.5156 34.562-4.6172 0.12109-0.042969 0.23438-0.11328 0.33203-0.19922 9.5273-5.6797 16.621-14.684 19.91-25.277 3.293-10.594 2.5469-22.031-2.0898-32.113zm2.1055 19.922c-2.3281-3.6719-5.7109-6.9492-8.7852-9.9102-0.72266-0.69531-1.418-1.3633-2.0703-2.0117-2.5469-2.5312-5.1836-4.8438-7.7305-7.0781-1.168-1.0273-2.3477-2.0586-3.5312-3.125v0.003906c-1.0938-0.98828-2.0898-2.0781-2.9766-3.2539 9.707-2.9844 14.922-2.2852 16.137-2.0469v0.003906c1.9844 2.5781 3.6758 5.375 5.0352 8.332 2.7578 5.9766 4.0977 12.508 3.9219 19.086zm-10.789-29.656c-2.8242-0.16406-7.9102 0.10547-15.508 2.5273-2.8164-4.4883-4.1523-9.7461-3.8125-15.031 0.6875 0.21484 1.3711 0.44922 2.0547 0.70313h-0.003906c6.6445 2.4414 12.578 6.4961 17.27 11.801zm-21.285-13.066c-0.45312 5.6797 0.88281 11.359 3.8242 16.242-2.0898 0.72656-4.3477 1.6094-6.7852 2.6797-4.957-7.7344-10.992-14.711-18.461-19.012 7.0312-1.7891 14.406-1.7617 21.422 0.089843zm-24.16 0.70703c7.8711 3.9414 14.199 11.047 19.359 19.047-2.9062 1.3398-6.0508 2.9453-9.4297 4.8477-0.125-0.15625-0.23828-0.32812-0.36719-0.47656v-0.003906c-3.8438-4.4844-9.1875-7.4102-15.035-8.2305-5.7969-0.76563-11.691 0.25781-16.887 2.9336-0.42188 0.21484-0.85547 0.44922-1.2969 0.69922l-0.003907-0.003906c5.3516-8.9258 13.758-15.609 23.66-18.812zm-27.086 25.941c0.47266-1.2773 1.0078-2.5117 1.5859-3.7148 0.066406-0.019531 0.13281-0.042968 0.19531-0.078125 1.2422-0.81641 2.5273-1.5664 3.8477-2.25 4.832-2.4883 10.309-3.4453 15.695-2.7344 5.3594 0.74609 10.262 3.4219 13.789 7.5273 0.054688 0.0625 0.10156 0.13672 0.15625 0.20312-1.3047 0.75781-2.6328 1.5391-4.0078 2.3867-1.0977 0.60156-25.551 14.23-29.906 31.715v0.003906c-4.8555-10.395-5.3438-22.305-1.3555-33.059zm2.8398 35.949c2.2266-17.727 29.109-32.707 29.426-32.883 1.4375-0.88672 2.8242-1.707 4.1875-2.4922v0.003906c0.89844 1.3477 1.6719 2.7773 2.3164 4.2617 1.2148 2.5586 1.8359 5.3594 1.8164 8.1953-0.24219 2.6719-0.875 5.2969-1.8789 7.7891l-5.3789 15.52c-1.5273 4.1172-2.7812 8.332-3.7578 12.613-0.49219 2.4219-0.80859 4.8789-0.94531 7.3438-1.082-0.30859-2.1641-0.64453-3.2383-1.043-9.5781-3.5391-17.574-10.387-22.547-19.309zm27.754 20.863c0.12109-2.5039 0.43359-4.9961 0.93359-7.4531 0.96094-4.1953 2.1953-8.3242 3.6914-12.363l5.3789-15.516c1.0742-2.6758 1.7461-5.4961 1.9883-8.3711 0.03125-3.1328-0.64453-6.2344-1.9844-9.0664-0.67188-1.5508-1.4766-3.043-2.4102-4.457 3.3555-1.8789 6.4688-3.4492 9.3398-4.7578 3.4609 5.7578 6.5391 11.734 9.2188 17.895 5.1328 11.496 10.34 26.328 5.1914 39.363-9.4648 5.5117-20.676 7.2031-31.348 4.7266zm50.051-26.938h0.003907c-3.0781 8.3203-8.6641 15.48-15.992 20.48 3.9297-13.074-1.1016-27.301-6.082-38.449-2.6797-6.1562-5.7539-12.137-9.2031-17.898 2.4805-1.0742 4.7617-1.9492 6.8633-2.6602 1.0586 1.4922 2.2773 2.8633 3.6328 4.0898 1.1914 1.0703 2.375 2.1094 3.5508 3.1406 2.6406 2.3164 5.1367 4.5039 7.6406 6.9922 0.65625 0.65234 1.3633 1.332 2.0898 2.0352 3.7344 3.5938 7.9609 7.6641 9.918 12.176l-0.003907-0.003906c-0.39844 3.4531-1.207 6.8398-2.4141 10.098z"/>

  </g><g data-name="business_name" fill="#ffffff" data="id:304" transform="translate(140.33712981771197,101.75443048602939) scale(2.38961380324743)"><path d="M15.8,48.32q-5.52,0-8.68-3.16t-3.16-9.24l0-15.92l4,0l0,15.76q0,4.68,2.06,6.84t5.82,2.16q3.8,0,5.86-2.16t2.06-6.84l0-15.76l3.88,0l0,15.92q0,6.08-3.14,9.24t-8.7,3.16z M39.44,33.24l14.44,0l0,3.44l-14.44,0l0-3.44z M39.84,48l-4,0l0-28l19.76,0l0,3.48l-15.76,0l0,24.52z M61.24,48l0-28l4,0l0,24.52l15.16,0l0,3.48l-19.16,0z"/></g><g data-name="slogan" fill="url(#gradient-21)" data="id:291" transform="translate(148.60609588864568,211.40940606995704) scale(0.8066919567350697)"><path d="M3.16,46.58q-1.68-1.82-1.68-5.22l0-21.36l4.4,0l0,21.68q0,1.44,0.58,2.08t1.66,0.64t1.66-0.64t0.58-2.08l0-21.68l4.24,0l0,21.36q0,3.4-1.68,5.22t-4.88,1.82t-4.88-1.82z M17.72,20l5.52,0l4.28,16.76l0.08,0l0-16.76l3.92,0l0,28l-4.52,0l-5.28-20.44l-0.08,0l0,20.44l-3.92,0l0-28z M34.8,20l4.4,0l0,28l-4.4,0l0-28z M45.92,24l-4.6,0l0-4l13.6,0l0,4l-4.6,0l0,24l-4.4,0l0-24z M57.04,20l12,0l0,4l-7.6,0l0,7.4l6.04,0l0,4l-6.04,0l0,8.6l7.6,0l0,4l-12,0l0-28z M71.56,20l6.72,0q3.28,0,4.92,1.76t1.64,5.16l0,14.16q0,3.4-1.64,5.16t-4.92,1.76l-6.72,0l0-28z M78.2,44q1.08,0,1.66-0.64t0.58-2.08l0-14.56q0-1.44-0.58-2.08t-1.66-0.64l-2.24,0l0,20l2.24,0z  M94.2,20l11.64,0l0,4l-7.24,0l0,7.8l5.68,0l0,4l-5.68,0l0,12.2l-4.4,0l0-28z M111.36,20l5.96,0l4.56,28l-4.4,0l-0.8-5.56l0,0.08l-5,0l-0.8,5.48l-4.08,0z M116.16,38.72l-1.96-13.84l-0.08,0l-1.92,13.84l3.96,0z M124,20l5.52,0l4.28,16.76l0.08,0l0-16.76l3.92,0l0,28l-4.52,0l-5.28-20.44l-0.08,0l0,20.44l-3.92,0l0-28z M144.52,24l-4.6,0l0-4l13.6,0l0,4l-4.6,0l0,24l-4.4,0l0-24z M159.04,20l5.96,0l4.56,28l-4.4,0l-0.8-5.56l0,0.08l-5,0l-0.8,5.48l-4.08,0z M163.84,38.72l-1.96-13.84l-0.08,0l-1.92,13.84l3.96,0z M172.56,46.58q-1.64-1.82-1.64-5.22l0-1.6l4.16,0l0,1.92q0,2.72,2.28,2.72q1.12,0,1.7-0.66t0.58-2.14q0-1.76-0.8-3.1t-2.96-3.22q-2.72-2.4-3.8-4.34t-1.08-4.38q0-3.32,1.68-5.14t4.88-1.82q3.16,0,4.78,1.82t1.62,5.22l0,1.16l-4.16,0l0-1.44q0-1.44-0.56-2.1t-1.64-0.66q-2.2,0-2.2,2.68q0,1.52,0.82,2.84t2.98,3.2q2.76,2.4,3.8,4.36t1.04,4.6q0,3.44-1.7,5.28t-4.94,1.84q-3.2,0-4.84-1.82z M190.6,36.08l-5.32-16.08l4.68,0l3,10.28l0.08,0l3-10.28l4.28,0l-5.32,16.08l0,11.92l-4.4,0l0-11.92z  M208.72,20l4.4,0l0,24l7.24,0l0,4l-11.64,0l0-28z M222.48,20l12,0l0,4l-7.6,0l0,7.4l6.04,0l0,4l-6.04,0l0,8.6l7.6,0l0,4l-12,0l0-28z M240.4,20l5.96,0l4.56,28l-4.4,0l-0.8-5.56l0,0.08l-5,0l-0.8,5.48l-4.08,0z M245.2,38.72l-1.96-13.84l-0.08,0l-1.92,13.84l3.96,0z M254.4,46.58q-1.68-1.82-1.68-5.22l0-14.72q0-3.4,1.68-5.22t4.88-1.82t4.88,1.82t1.68,5.22l0,2.4l-4.16,0l0-2.68q0-2.76-2.28-2.76t-2.28,2.76l0,15.32q0,2.72,2.28,2.72t2.28-2.72l0-5.48l-2.2,0l0-4l6.36,0l0,9.16q0,3.4-1.68,5.22t-4.88,1.82t-4.88-1.82z M270.2,46.58q-1.68-1.82-1.68-5.22l0-21.36l4.4,0l0,21.68q0,1.44,0.58,2.08t1.66,0.64t1.66-0.64t0.58-2.08l0-21.68l4.24,0l0,21.36q0,3.4-1.68,5.22t-4.88,1.82t-4.88-1.82z M284.76,20l12,0l0,4l-7.6,0l0,7.4l6.04,0l0,4l-6.04,0l0,8.6l7.6,0l0,4l-12,0l0-28z"/></g></svg>